<svg width="40" height="40" viewBox="0 0 40 40" fill="none" xmlns="http://www.w3.org/2000/svg">
<path d="M8.33333 31.6667H18.3333C19.25 31.6667 20 32.4167 20 33.3333C20 34.25 19.25 35 18.3333 35H8.33333C6.5 35 5 33.5 5 31.6667L5 8.33333C5 6.5 6.5 5 8.33333 5H18.3333C19.25 5 20 5.75 20 6.66667C20 7.58333 19.25 8.33333 18.3333 8.33333H8.33333L8.33333 31.6667Z" fill="#9E1824"/>
<path d="M34.4167 20.5833L29.7667 25.2333C29.6508 25.3524 29.5019 25.4342 29.3393 25.4682C29.1766 25.5022 29.0075 25.4869 28.8536 25.4243C28.6997 25.3617 28.5679 25.2545 28.4752 25.1166C28.3826 24.9786 28.3332 24.8162 28.3333 24.65V21.6667H16.6667C15.75 21.6667 15 20.9167 15 20C15 19.0833 15.75 18.3333 16.6667 18.3333H28.3333V15.35C28.3333 14.6 29.2333 14.2333 29.75 14.7667L34.4 19.4167C34.7333 19.7333 34.7333 20.2667 34.4167 20.5833V20.5833Z" fill="#9E1824"/>
</svg>
