<svg width="48" height="48" viewBox="0 0 48 48" fill="none" xmlns="http://www.w3.org/2000/svg">
<path fill-rule="evenodd" clip-rule="evenodd" d="M24 2C11.85 2 2 11.85 2 24C2 36.15 11.85 46 24 46C36.15 46 46 36.15 46 24C46 11.85 36.15 2 24 2ZM31.414 19.414C31.7783 19.0368 31.9799 18.5316 31.9753 18.0072C31.9708 17.4828 31.7605 16.9812 31.3896 16.6104C31.0188 16.2395 30.5172 16.0292 29.9928 16.0247C29.4684 16.0201 28.9632 16.2217 28.586 16.586L24 21.172L19.414 16.586C19.2295 16.395 19.0088 16.2426 18.7648 16.1378C18.5208 16.033 18.2584 15.9778 17.9928 15.9755C17.7272 15.9732 17.4639 16.0238 17.2181 16.1244C16.9723 16.2249 16.749 16.3734 16.5612 16.5612C16.3734 16.749 16.2249 16.9723 16.1244 17.2181C16.0238 17.4639 15.9732 17.7272 15.9755 17.9928C15.9778 18.2584 16.033 18.5208 16.1378 18.7648C16.2426 19.0088 16.395 19.2295 16.586 19.414L21.172 24L16.586 28.586C16.395 28.7705 16.2426 28.9912 16.1378 29.2352C16.033 29.4792 15.9778 29.7416 15.9755 30.0072C15.9732 30.2728 16.0238 30.5361 16.1244 30.7819C16.2249 31.0277 16.3734 31.251 16.5612 31.4388C16.749 31.6266 16.9723 31.7751 17.2181 31.8756C17.4639 31.9762 17.7272 32.0268 17.9928 32.0245C18.2584 32.0222 18.5208 31.967 18.7648 31.8622C19.0088 31.7574 19.2295 31.605 19.414 31.414L24 26.828L28.586 31.414C28.9632 31.7783 29.4684 31.9799 29.9928 31.9753C30.5172 31.9708 31.0188 31.7605 31.3896 31.3896C31.7605 31.0188 31.9708 30.5172 31.9753 29.9928C31.9799 29.4684 31.7783 28.9632 31.414 28.586L26.828 24L31.414 19.414Z" fill="#9E1824"/>
</svg>
